<?xml version="1.0" standalone="no"?>
<!DOCTYPE svg PUBLIC "-//W3C//DTD SVG 20010904//EN"
        "http://www.w3.org/TR/2001/REC-SVG-20010904/DTD/svg10.dtd">
<svg version="1.0" xmlns="http://www.w3.org/2000/svg"
     width="636.000000pt" height="1280.000000pt" viewBox="0 0 636.000000 1280.000000"
     preserveAspectRatio="xMidYMid meet">
    <metadata>
        Created by potrace 1.15, written by Peter Selinger 2001-2017
    </metadata>
    <g transform="translate(0.000000,1280.000000) scale(0.100000,-0.100000)"
       fill="#0f0" stroke="none">
        <path d="M2794 12010 c-272 -36 -658 -196 -913 -379 -597 -429 -966 -1123
-1020 -1923 -20 -292 36 -667 150 -1010 166 -494 503 -1085 983 -1723 294
-392 667 -740 882 -824 84 -34 89 -49 40 -136 -21 -38 -72 -121 -112 -184 -41
-63 -74 -123 -74 -134 0 -17 5 -19 38 -13 26 4 45 1 58 -9 10 -8 34 -15 52
-15 18 0 43 -5 54 -11 11 -6 41 -14 67 -18 33 -5 45 -11 43 -22 -17 -71 -21
-548 -21 -2429 0 -2219 0 -2236 36 -2247 38 -13 38 -45 43 2332 3 1260 9 2299
14 2311 l8 21 76 -19 c139 -34 127 -35 171 10 22 22 80 62 130 88 50 27 91 54
91 60 0 11 -17 34 -118 159 -103 127 -143 191 -134 214 4 12 39 36 87 60 239
117 508 381 848 834 275 365 538 783 721 1147 157 313 269 608 312 820 45 226
57 344 57 555 -2 519 -73 852 -263 1231 -136 269 -274 459 -481 659 -335 323
-754 534 -1175 590 -118 16 -541 19 -650 5z"/>
    </g>
</svg>
