<svg class="svg-icon" style="width: 1em;height: 1em;vertical-align: middle;fill: currentColor;overflow: hidden;"
     viewBox="180 180 660 660" version="1.1" xmlns="http://www.w3.org/2000/svg">
    <path d="M493.9 824.2c-5.7 0-11.5-2-16.2-6-10.5-9-11.8-24.7-2.8-35.2 0.5-0.6 2.2-2.7 7.1-9.1 18.2-24 43.2-42.5 72.1-53.6 2.6-1 5.3-2.1 8.1-3.3 6-2.5 12.7-5.3 20.9-7.9 80.1-25.5 134-95 134-173V331.5c-50.4-2.6-97-11.6-135.5-26.2-29.1-11.1-51.9-24.9-67.6-40.7-15.7 15.9-38.5 29.7-67.6 40.7-38.5 14.7-85.1 23.7-135.5 26.2v204.7c0 71.8 46 137.3 117.2 166.9 12.8 5.3 18.8 19.9 13.5 32.7-5.3 12.8-19.9 18.8-32.7 13.5-89.9-37.3-148.1-121-148.1-213.1V317c0-19.1 15.3-34.5 34.7-35 49.5-1.3 96.7-9.7 133-23.5 31.1-11.9 53.2-27.6 59-42.2 4.3-10.7 14.7-17.7 26.4-17.7s22 6.9 26.4 17.7c5.9 14.5 27.9 30.3 59 42.2 36.3 13.8 83.5 22.2 133 23.5 19.5 0.5 34.7 15.9 34.7 35v219.2c0 99.9-67.8 188.6-168.8 220.7-6.1 1.9-11.3 4.1-16.8 6.4-3 1.3-6.2 2.6-9.4 3.8-20.2 7.7-37.6 20.5-50.1 37.1-5.6 7.3-7.7 9.9-8.8 11.3-5.1 5.7-12.1 8.7-19.2 8.7zM296.8 332z"
          fill="#1b1b1b"/>
    <path d="M515.4 647.4c-19.6 0-39.2-8.5-53.8-23.3l-88.8-90c-19.1-19.4-30.8-44.2-32.9-70-2.2-27.3 6.4-52.3 24.3-70.5 15.9-16.2 37.8-25.2 61.7-25.2h0.1c27.9 0 55.9 12.2 77 33.6l0.7 0.8 24.4 27c9.3 10.2 8.5 26-1.8 35.3-10.2 9.3-26 8.5-35.3-1.8l-24-26.5c-11.7-11.7-26.7-18.4-41.1-18.4h-0.1c-7.3 0-17.8 1.8-26.1 10.3-16.4 16.7-12.5 48.9 8.6 70.3l88.8 90c5.2 5.3 12.1 8.5 18.2 8.5 3.7 0 6.7-1.1 8.9-3.3 9.7-9.8 25.5-10 35.4-0.3 9.8 9.7 10 25.5 0.3 35.4-11.5 11.6-27.3 18.1-44.5 18.1 0.1 0 0.1 0 0 0z"
          fill="#1b1b1b"/>
    <path d="M511.3 647.4c-0.1 0-0.1 0 0 0-17.2 0-33-6.5-44.5-18.2-9.7-9.8-9.5-25.7 0.3-35.4s25.7-9.5 35.4 0.3c2.1 2.2 5.1 3.3 8.8 3.3 6.2 0 13.1-3.2 18.4-8.6l89.1-90.2c21.2-21.4 25.2-53.7 8.7-70.4-8.3-8.4-18.7-10.2-26-10.2h-0.1c-14.6 0-29.8 6.9-41.7 18.8L492.4 505c-9.7 9.8-25.5 9.9-35.4 0.2s-9.9-25.5-0.2-35.4l67.3-68.1c21.2-21.4 49.3-33.7 77.2-33.7h0.1c23.8 0 45.7 9 61.6 25.2 17.9 18.2 26.5 43.3 24.2 70.6-2.1 25.8-13.9 50.6-33 70l-89 90.2c-14.7 14.9-34.4 23.4-53.9 23.4z"
          fill="#1b1b1b"/>
</svg>