<svg class="svg-icon" style="width: 1em; height: 1em;vertical-align: middle;fill: currentColor;overflow: hidden;"
     viewBox="0 0 1024 1024" version="1.1" xmlns="http://www.w3.org/2000/svg">
    <path d="M313.6 931.2c1.6 1.6 3.2 1.6 6.4 1.6s4.8 0 6.4-1.6l41.6-41.6c3.2-3.2 3.2-8 0-11.2l-11.2-11.2 48-48h3.2c32 11.2 65.6 16 102.4 16h6.4c177.6 0 321.6-144 321.6-321.6v-6.4c0-177.6-144-321.6-321.6-321.6h-6.4c-177.6 0-321.6 144-321.6 321.6v6.4c0 72 24 137.6 64 192L224 734.4l-8-8c-3.2-3.2-8-3.2-11.2 0L163.2 768c-3.2 3.2-3.2 8 0 11.2l150.4 152z m190.4-297.6l8-4.8 8 4.8h-16z m76.8 38.4l11.2 6.4-3.2 3.2c-1.6 1.6-4.8 3.2-8 4.8v-8-6.4z m22.4-4.8L512 609.6l-38.4 24h-56l19.2-78.4-92.8-78.4 121.6-8 46.4-113.6 46.4 113.6 121.6 8-92.8 78.4 25.6 102.4-9.6 9.6z m-320 30.4c30.4-30.4 72-48 115.2-48h136c16 0 30.4 14.4 30.4 32 0 16-14.4 30.4-30.4 30.4h-89.6v16h89.6c16 0 28.8-8 36.8-19.2 9.6-1.6 19.2-6.4 27.2-14.4l73.6-73.6c12.8-12.8 32-12.8 44.8 0 6.4 6.4 9.6 14.4 9.6 22.4s-3.2 16-9.6 22.4L630.4 752c-33.6 33.6-78.4 52.8-126.4 52.8h-107.2l-52.8 52.8-110.4-110.4 49.6-49.6z m67.2 185.6l-30.4 32-139.2-139.2 30.4-30.4 139.2 137.6z m-131.2-374.4c0-160 129.6-289.6 289.6-289.6h6.4c160 0 289.6 129.6 289.6 289.6v6.4c0 124.8-80 232-192 272 11.2-6.4 20.8-16 30.4-25.6l86.4-86.4c19.2-19.2 19.2-48 0-67.2-19.2-19.2-48-19.2-67.2 0l-36.8 36.8-20.8-83.2L720 464l-152-11.2-56-140.8-57.6 140.8-150.4 11.2 116.8 97.6-17.6 72H400c-46.4 0-91.2 17.6-124.8 51.2-33.6-48-54.4-105.6-54.4-168v-8z"
          fill="#1b1b1b"/>
</svg>