<svg class="svg-icon" style="width: 1em; height: 1em;vertical-align: middle;fill: currentColor;overflow: hidden;"
     viewBox="0 0 1024 1024" version="1.1" xmlns="http://www.w3.org/2000/svg">
    <path d="M652.373333 439.04l-118.613333 118.613333A89.173333 89.173333 0 0 0 512 554.666667a85.333333 85.333333 0 0 0-85.333333 85.333333 89.173333 89.173333 0 0 0 2.986666 21.76l-33.28 33.28a42.666667 42.666667 0 0 0 0 60.586667 42.666667 42.666667 0 0 0 60.586667 0l33.28-33.28A89.173333 89.173333 0 0 0 512 725.333333a85.333333 85.333333 0 0 0 85.333333-85.333333 89.173333 89.173333 0 0 0-2.986666-21.76l118.613333-118.613333a42.666667 42.666667 0 0 0-60.586667-60.586667zM512 170.666667A426.666667 426.666667 0 0 0 85.333333 597.333333a422.826667 422.826667 0 0 0 72.106667 237.226667 42.666667 42.666667 0 0 0 70.826667-47.786667 341.333333 341.333333 0 1 1 567.466666 0 42.666667 42.666667 0 0 0 11.52 59.306667 42.666667 42.666667 0 0 0 23.893334 7.253333 42.666667 42.666667 0 0 0 35.413333-18.773333A422.826667 422.826667 0 0 0 938.666667 597.333333 426.666667 426.666667 0 0 0 512 170.666667z"
          fill="#1b1b1b"/>
</svg>