<svg class="svg-icon" style="width: 1em; height: 1em;vertical-align: middle;fill: currentColor;overflow: hidden;"
     viewBox="0 0 1024 1024" version="1.1" xmlns="http://www.w3.org/2000/svg">
    <path d="M640 170.666667a341.333333 341.333333 0 0 1 341.333333 341.333333 341.333333 341.333333 0 0 1-341.333333 341.333333 341.333333 341.333333 0 0 1-341.333333-341.333333 341.333333 341.333333 0 0 1 341.333333-341.333333m0 85.333333a256 256 0 0 0-256 256 256 256 0 0 0 256 256 256 256 0 0 0 256-256 256 256 0 0 0-256-256m-42.666667 85.333333h64v161.28l99.413334 99.413334-45.226667 45.226666L597.333333 529.066667V341.333333M85.333333 768a42.666667 42.666667 0 0 1-42.666666-42.666667 42.666667 42.666667 0 0 1 42.666666-42.666666h163.413334c13.226667 30.293333 30.293333 58.88 49.92 85.333333H85.333333m42.666667-213.333333a42.666667 42.666667 0 0 1-42.666667-42.666667 42.666667 42.666667 0 0 1 42.666667-42.666667h87.466667L213.333333 512l2.133334 42.666667H128m42.666667-213.333334a42.666667 42.666667 0 0 1-42.666667-42.666666 42.666667 42.666667 0 0 1 42.666667-42.666667h128c-19.626667 26.453333-36.693333 55.04-49.92 85.333333H170.666667z"
          fill="#1b1b1b"/>
</svg>