<?xml version="1.0" encoding="iso-8859-1"?>
<!-- Generator: Adobe Illustrator 19.0.0, SVG Export Plug-In . SVG Version: 6.00 Build 0)  -->
<svg fill="#808cff" version="1.1" id="Layer_1" xmlns="http://www.w3.org/2000/svg" xmlns:xlink="http://www.w3.org/1999/xlink" x="0px" y="0px"
	 viewBox="0 0 490 490" style="enable-background:new 0 0 490 490;" xml:space="preserve">
<g>
	<g>
		<g>
			<path d="M470,0H20C8.972,0,0,8.972,0,20v450c0,11.028,8.972,20,20,20h450c11.028,0,20-8.972,20-20V20C490,8.972,481.028,0,470,0z
				 M470,470H20V90h450V470z M470,70H20V20h450V70z"/>
			<rect x="40" y="35" width="35" height="20"/>
			<rect x="90" y="35" width="35" height="20"/>
			<rect x="415" y="35" width="35" height="20"/>
			<rect x="40" y="410" width="80" height="20"/>
			<rect x="135" y="410" width="35" height="20"/>
			<rect x="40" y="440" width="80" height="20"/>
			<rect x="135" y="440" width="35" height="20"/>
			<rect x="190" y="410" width="80" height="20"/>
			<rect x="285" y="410" width="35" height="20"/>
			<rect x="190" y="440" width="80" height="20"/>
			<rect x="285" y="440" width="35" height="20"/>
			<path d="M45,290h270c5.522,0,10-4.478,10-10V110c0-5.522-4.478-10-10-10H45c-5.522,0-10,4.478-10,10v170
				C35,285.522,39.478,290,45,290z M79.65,270L180,206.817L280.35,270H79.65z M305,261.887L198.768,195L305,128.113V261.887z
				 M280.35,120L180,183.183L79.65,120H280.35z M55,128.113L161.232,195L55,261.887V128.113z"/>
			<path d="M45,400h120c5.522,0,10-4.478,10-10v-80c0-5.522-4.478-10-10-10H45c-5.522,0-10,4.478-10,10v80
				C35,395.522,39.478,400,45,400z M78.027,380L105,362.018L131.973,380H78.027z M155,371.315L123.027,350L155,328.685V371.315z
				 M131.972,320L105,337.982L78.027,320H131.972z M55,328.685L86.973,350L55,371.315V328.685z"/>
			<path d="M315,300H195c-5.522,0-10,4.478-10,10v80c0,5.522,4.478,10,10,10h120c5.522,0,10-4.478,10-10v-80
				C325,304.478,320.522,300,315,300z M281.972,320L255,337.982L228.027,320H281.972z M205,328.685L236.973,350L205,371.315V328.685
				z M228.028,380L255,362.018L281.973,380H228.028z M305,371.315L273.027,350L305,328.685V371.315z"/>
			<path d="M345,460h100c5.522,0,10-4.478,10-10V110c0-5.522-4.478-10-10-10H345c-5.522,0-10,4.478-10,10v340
				C335,455.522,339.478,460,345,460z M358.364,440L395,315.44L431.635,440H358.364z M435,380.56L405.424,280L435,179.44V380.56z
				 M431.636,120L395,244.56L358.365,120H431.636z M355,179.44L384.576,280L355,380.56V179.44z"/>
		</g>
	</g>
</g>
<g>
</g>
<g>
</g>
<g>
</g>
<g>
</g>
<g>
</g>
<g>
</g>
<g>
</g>
<g>
</g>
<g>
</g>
<g>
</g>
<g>
</g>
<g>
</g>
<g>
</g>
<g>
</g>
<g>
</g>
</svg>
