<svg width="576" height="158" viewBox="0 0 576 158" fill="none" xmlns="http://www.w3.org/2000/svg">
<path d="M24.7242 136.68H74.0742V156H0.78418V10.05H24.7242V136.68ZM122.865 97.62C122.865 86 125.245 75.71 130.005 66.75C134.905 57.79 141.485 50.86 149.745 45.96C158.145 40.92 167.385 38.4 177.465 38.4C186.565 38.4 194.475 40.22 201.195 43.86C208.055 47.36 213.515 51.77 217.575 57.09V40.29H241.725V156H217.575V138.78C213.515 144.24 207.985 148.79 200.985 152.43C193.985 156.07 186.005 157.89 177.045 157.89C167.105 157.89 158.005 155.37 149.745 150.33C141.485 145.15 134.905 138.01 130.005 128.91C125.245 119.67 122.865 109.24 122.865 97.62ZM217.575 98.04C217.575 90.06 215.895 83.13 212.535 77.25C209.315 71.37 205.045 66.89 199.725 63.81C194.405 60.73 188.665 59.19 182.505 59.19C176.345 59.19 170.605 60.73 165.285 63.81C159.965 66.75 155.625 71.16 152.265 77.04C149.045 82.78 147.435 89.64 147.435 97.62C147.435 105.6 149.045 112.6 152.265 118.62C155.625 124.64 159.965 129.26 165.285 132.48C170.745 135.56 176.485 137.1 182.505 137.1C188.665 137.1 194.405 135.56 199.725 132.48C205.045 129.4 209.315 124.92 212.535 119.04C215.895 113.02 217.575 106.02 217.575 98.04ZM333.859 57.51C337.919 51.91 343.449 47.36 350.449 43.86C357.589 40.22 365.499 38.4 374.179 38.4C384.399 38.4 393.639 40.85 401.899 45.75C410.159 50.65 416.669 57.65 421.429 66.75C426.189 75.71 428.569 86 428.569 97.62C428.569 109.24 426.189 119.67 421.429 128.91C416.669 138.01 410.089 145.15 401.689 150.33C393.429 155.37 384.259 157.89 374.179 157.89C365.219 157.89 357.239 156.14 350.239 152.64C343.379 149.14 337.919 144.66 333.859 139.2V156H309.919V0.599998H333.859V57.51ZM404.209 97.62C404.209 89.64 402.529 82.78 399.169 77.04C395.949 71.16 391.609 66.75 386.149 63.81C380.829 60.73 375.089 59.19 368.929 59.19C362.909 59.19 357.169 60.73 351.709 63.81C346.389 66.89 342.049 71.37 338.689 77.25C335.469 83.13 333.859 90.06 333.859 98.04C333.859 106.02 335.469 113.02 338.689 119.04C342.049 124.92 346.389 129.4 351.709 132.48C357.169 135.56 362.909 137.1 368.929 137.1C375.089 137.1 380.829 135.56 386.149 132.48C391.609 129.26 395.949 124.64 399.169 118.62C402.529 112.6 404.209 105.6 404.209 97.62ZM530.993 157.89C521.893 157.89 513.703 156.28 506.423 153.06C499.283 149.7 493.613 145.22 489.413 139.62C485.213 133.88 482.973 127.51 482.693 120.51H507.473C507.893 125.41 510.203 129.54 514.403 132.9C518.743 136.12 524.133 137.73 530.573 137.73C537.293 137.73 542.473 136.47 546.113 133.95C549.893 131.29 551.783 127.93 551.783 123.87C551.783 119.53 549.683 116.31 545.483 114.21C541.423 112.11 534.913 109.8 525.953 107.28C517.273 104.9 510.203 102.59 504.743 100.35C499.283 98.11 494.523 94.68 490.463 90.06C486.543 85.44 484.583 79.35 484.583 71.79C484.583 65.63 486.403 60.03 490.043 54.99C493.683 49.81 498.863 45.75 505.583 42.81C512.443 39.87 520.283 38.4 529.103 38.4C542.263 38.4 552.833 41.76 560.813 48.48C568.933 55.06 573.273 64.09 573.833 75.57H549.893C549.473 70.39 547.373 66.26 543.593 63.18C539.813 60.1 534.703 58.56 528.263 58.56C521.963 58.56 517.133 59.75 513.773 62.13C510.413 64.51 508.733 67.66 508.733 71.58C508.733 74.66 509.853 77.25 512.093 79.35C514.333 81.45 517.063 83.13 520.283 84.39C523.503 85.51 528.263 86.98 534.563 88.8C542.963 91.04 549.823 93.35 555.143 95.73C560.603 97.97 565.293 101.33 569.213 105.81C573.133 110.29 575.163 116.24 575.303 123.66C575.303 130.24 573.483 136.12 569.843 141.3C566.203 146.48 561.023 150.54 554.303 153.48C547.723 156.42 539.953 157.89 530.993 157.89Z" fill="#ffffff"/>
</svg>
