<svg width="590" height="220" viewBox="0 0 590 220" fill="none" xmlns="http://www.w3.org/2000/svg">
    <path d="M121.252 24.2554V55.9447H39.6454V106.143H102.183V137.271H39.6454V220H0.384293V24.2554H121.252ZM191.158 64.6382V220H151.897V64.6382H191.158ZM333.709 220L290.522 143.721H272.013V220H232.752V24.2554H306.226C321.37 24.2554 334.27 26.9663 344.927 32.388C355.583 37.6229 363.529 44.8207 368.764 53.9816C374.186 62.9556 376.896 73.0513 376.896 84.2688C376.896 97.1688 373.157 108.854 365.679 119.323C358.201 129.606 347.077 136.71 332.307 140.636L379.14 220H333.709ZM272.013 114.275H304.824C315.481 114.275 323.427 111.752 328.661 106.704C333.896 101.469 336.514 94.271 336.514 85.1101C336.514 76.1361 333.896 69.2187 328.661 64.3578C323.427 59.3099 315.481 56.786 304.824 56.786H272.013V114.275ZM535.238 182.702H457.277L444.376 220H403.152L473.542 23.9749H519.253L589.643 220H548.138L535.238 182.702ZM524.581 151.293L496.257 69.4057L467.933 151.293H524.581Z"
          fill="#ffffff"/>
    <path d="M 171.808 46.1294 L 147.69 23.1336 L 171.808 0.1379 L 195.925 23.1336 L 171.808 46.1294 Z"
          fill="#ffffff"/>
</svg>
