<svg width="507" height="452" viewBox="0 0 507 452" fill="none" xmlns="http://www.w3.org/2000/svg">
<path d="M307.034 2.00024C359.434 2.00024 411.934 2.00024 464.334 2.00024C472.234 2.00024 479.234 4.80024 485.434 9.00024C494.634 15.2002 502.234 23.8003 504.534 34.6003C506.334 43.4003 508.034 53.4003 501.334 61.7003C499.034 64.5003 496.234 66.0002 492.334 66.0002C413.734 65.9002 335.134 65.9002 256.534 65.9002C250.934 65.9002 250.134 67.0003 252.734 71.7003C259.034 82.9003 265.634 94.0002 271.834 105.3C273.934 109.2 276.934 110 280.834 110C308.934 109.9 337.134 110 365.234 110C399.334 110 433.534 110 467.634 110C473.334 110 473.834 110.8 470.934 115.8C461.234 132.8 451.534 149.8 441.634 166.7C438.834 171.5 434.934 174.1 428.634 174C391.834 173.7 355.034 173.8 318.234 173.9C316.734 173.9 314.534 173 313.734 174.7C312.934 176.3 313.834 178.2 314.734 179.8C325.234 197.8 335.334 216.2 346.234 233.9C353.834 246.2 359.834 259.3 368.034 271.2C370.034 274 370.734 277.5 372.734 280.4C374.434 282.9 371.934 285.2 370.934 287.2C363.234 302 355.234 316.6 347.034 331.1C345.034 334.6 342.434 337.8 340.734 341.6C339.334 344.8 337.034 342.9 335.634 341.5C332.534 338.5 331.534 334.2 329.434 330.6C322.934 319.9 316.734 309 310.334 298.1C304.534 288.1 298.634 278.1 292.934 268.1C282.834 250.6 272.834 233 262.634 215.4C254.734 201.7 246.034 188.3 238.734 174.3C231.934 161.2 224.134 148.8 216.634 136.1C206.334 118.7 196.634 100.9 186.534 83.4002C177.334 67.4002 168.234 51.4003 158.734 35.6003C153.234 26.4003 148.134 16.9002 143.234 7.40024C140.734 2.40024 141.034 2.30023 147.034 2.30023C190.634 2.30023 234.234 2.30023 277.934 2.30023C287.734 2.00023 297.334 2.00024 307.034 2.00024Z" fill="#B80B0B"/>
<path d="M255.834 451.2C237.634 451.3 225.034 443.4 215.734 429.8C198.434 404.7 184.934 377.4 169.834 351C147.034 311.3 123.634 271.9 100.334 232.4C68.2343 178 35.7343 123.8 6.63427 67.8001C0.234268 55.5001 -2.56574 42.7001 2.93426 29.4001C8.93426 14.9001 19.9343 5.50013 35.1343 1.30013C41.6343 -0.499874 45.7343 1.80013 49.4343 8.30013C62.7343 31.5001 76.0343 54.6001 89.3343 77.8001C107.434 109.3 126.534 140.3 144.734 171.8C176.334 226.5 208.334 280.9 238.634 336.4C242.134 342.8 245.934 349.1 249.534 355.4C250.634 357.3 251.834 359.5 254.234 359.4C256.534 359.3 257.034 357 257.834 355.1C264.934 338.2 275.334 323.1 284.934 307.5C289.034 300.8 293.434 301 297.634 308C303.734 318.1 309.634 328.3 315.334 338.6C317.734 342.8 320.434 346.8 323.234 350.7C328.334 357.6 328.934 364.6 324.534 372.1C317.134 384.7 309.934 397.4 302.434 409.9C296.534 419.7 291.634 430 283.734 438.6C275.834 447.2 266.234 451.3 255.834 451.2Z" fill="#B80B0B"/>
</svg>
