<svg width="66" height="10" viewBox="0 0 66 10" fill="none" xmlns="http://www.w3.org/2000/svg">
    <path d="M3.78409 9H0.958807V0.272727H3.87358C4.72869 0.272727 5.46307 0.447443 6.0767 0.796875C6.69034 1.14347 7.16051 1.64205 7.48722 2.29261C7.81676 2.94034 7.98153 3.71733 7.98153 4.62358C7.98153 5.53267 7.81534 6.31392 7.48295 6.96733C7.15341 7.62074 6.67614 8.12358 6.05114 8.47585C5.42614 8.82528 4.67045 9 3.78409 9ZM2.27557 7.84943H3.71165C4.37642 7.84943 4.92898 7.72443 5.36932 7.47443C5.80966 7.22159 6.1392 6.85653 6.35795 6.37926C6.5767 5.89915 6.68608 5.31392 6.68608 4.62358C6.68608 3.93892 6.5767 3.35795 6.35795 2.88068C6.14205 2.40341 5.8196 2.04119 5.39062 1.79403C4.96165 1.54687 4.42898 1.4233 3.79261 1.4233H2.27557V7.84943ZM12.3377 9.1321C11.6928 9.1321 11.1374 8.99432 10.6715 8.71875C10.2085 8.44034 9.8505 8.04972 9.59766 7.54688C9.34766 7.04119 9.22266 6.44886 9.22266 5.76989C9.22266 5.09943 9.34766 4.50852 9.59766 3.99716C9.8505 3.4858 10.2028 3.08665 10.6545 2.79972C11.109 2.51278 11.6403 2.36932 12.2482 2.36932C12.6175 2.36932 12.9755 2.4304 13.3221 2.55256C13.6687 2.67472 13.9798 2.86648 14.2553 3.12784C14.5309 3.3892 14.7482 3.72869 14.9073 4.14631C15.0664 4.56108 15.146 5.06534 15.146 5.65909V6.1108H9.94283V5.15625H13.8974C13.8974 4.82102 13.8292 4.52415 13.6928 4.26562C13.5565 4.00426 13.3647 3.7983 13.1175 3.64773C12.8732 3.49716 12.5863 3.42188 12.2567 3.42188C11.8988 3.42188 11.5863 3.50994 11.3192 3.68608C11.055 3.85937 10.8505 4.08665 10.7056 4.3679C10.5636 4.64631 10.4925 4.94886 10.4925 5.27557V6.02131C10.4925 6.45881 10.5692 6.83097 10.7227 7.13778C10.8789 7.4446 11.0962 7.67898 11.3746 7.84091C11.6531 8 11.9783 8.07955 12.3505 8.07955C12.592 8.07955 12.8121 8.04545 13.011 7.97727C13.2099 7.90625 13.3817 7.80114 13.5266 7.66193C13.6715 7.52273 13.7823 7.35085 13.859 7.14631L15.065 7.36364C14.9684 7.71875 14.7951 8.02983 14.5451 8.29688C14.2979 8.56108 13.9869 8.76705 13.6119 8.91477C13.2397 9.05966 12.815 9.1321 12.3377 9.1321ZM19.3168 9.1321C18.6832 9.1321 18.1378 8.98864 17.6804 8.7017C17.2259 8.41193 16.8764 8.01278 16.6321 7.50426C16.3878 6.99574 16.2656 6.41335 16.2656 5.7571C16.2656 5.09233 16.3906 4.50568 16.6406 3.99716C16.8906 3.4858 17.2429 3.08665 17.6974 2.79972C18.152 2.51278 18.6875 2.36932 19.304 2.36932C19.8011 2.36932 20.2443 2.46165 20.6335 2.64631C21.0227 2.82812 21.3366 3.08381 21.5753 3.41335C21.8168 3.7429 21.9602 4.12784 22.0057 4.56818H20.7656C20.6974 4.26136 20.5412 3.99716 20.2969 3.77557C20.0554 3.55398 19.7315 3.44318 19.3253 3.44318C18.9702 3.44318 18.6591 3.53693 18.392 3.72443C18.1278 3.90909 17.9219 4.1733 17.7741 4.51705C17.6264 4.85795 17.5526 5.26136 17.5526 5.72727C17.5526 6.20455 17.625 6.61648 17.7699 6.96307C17.9148 7.30966 18.1193 7.57812 18.3835 7.76847C18.6506 7.95881 18.9645 8.05398 19.3253 8.05398C19.5668 8.05398 19.7855 8.00994 19.9815 7.92188C20.1804 7.83097 20.3466 7.7017 20.4801 7.53409C20.6165 7.36648 20.7116 7.16477 20.7656 6.92898H22.0057C21.9602 7.35227 21.8224 7.73011 21.5923 8.0625C21.3622 8.39489 21.054 8.65625 20.6676 8.84659C20.2841 9.03693 19.8338 9.1321 19.3168 9.1321ZM26.1893 9.1321C25.5444 9.1321 24.989 8.99432 24.5231 8.71875C24.06 8.44034 23.7021 8.04972 23.4492 7.54688C23.1992 7.04119 23.0742 6.44886 23.0742 5.76989C23.0742 5.09943 23.1992 4.50852 23.4492 3.99716C23.7021 3.4858 24.0543 3.08665 24.506 2.79972C24.9606 2.51278 25.4918 2.36932 26.0998 2.36932C26.4691 2.36932 26.8271 2.4304 27.1737 2.55256C27.5202 2.67472 27.8313 2.86648 28.1069 3.12784C28.3825 3.3892 28.5998 3.72869 28.7589 4.14631C28.918 4.56108 28.9975 5.06534 28.9975 5.65909V6.1108H23.7944V5.15625H27.7489C27.7489 4.82102 27.6808 4.52415 27.5444 4.26562C27.408 4.00426 27.2163 3.7983 26.9691 3.64773C26.7248 3.49716 26.4379 3.42188 26.1083 3.42188C25.7504 3.42188 25.4379 3.50994 25.1708 3.68608C24.9066 3.85937 24.7021 4.08665 24.5572 4.3679C24.4151 4.64631 24.3441 4.94886 24.3441 5.27557V6.02131C24.3441 6.45881 24.4208 6.83097 24.5742 7.13778C24.7305 7.4446 24.9478 7.67898 25.2262 7.84091C25.5046 8 25.8299 8.07955 26.2021 8.07955C26.4435 8.07955 26.6637 8.04545 26.8626 7.97727C27.0614 7.90625 27.2333 7.80114 27.3782 7.66193C27.5231 7.52273 27.6339 7.35085 27.7106 7.14631L28.9165 7.36364C28.82 7.71875 28.6467 8.02983 28.3967 8.29688C28.1495 8.56108 27.8384 8.76705 27.4634 8.91477C27.0913 9.05966 26.6665 9.1321 26.1893 9.1321ZM31.6854 5.11364V9H30.4112V2.45455H31.6342V3.51989H31.7152C31.8658 3.1733 32.1016 2.89489 32.4226 2.68466C32.7464 2.47443 33.1541 2.36932 33.6456 2.36932C34.0916 2.36932 34.4822 2.46307 34.8175 2.65057C35.1527 2.83523 35.4126 3.1108 35.5973 3.47727C35.782 3.84375 35.8743 4.29687 35.8743 4.83665V9H34.6001V4.99006C34.6001 4.51562 34.4766 4.14489 34.2294 3.87784C33.9822 3.60795 33.6428 3.47301 33.2109 3.47301C32.9155 3.47301 32.6527 3.53693 32.4226 3.66477C32.1953 3.79261 32.0149 3.98011 31.8814 4.22727C31.7507 4.47159 31.6854 4.76705 31.6854 5.11364ZM40.6385 2.45455V3.47727H37.0632V2.45455H40.6385ZM38.022 0.886364H39.2962V7.07812C39.2962 7.32528 39.3331 7.51136 39.407 7.63636C39.4808 7.75852 39.576 7.84233 39.6925 7.88778C39.8118 7.9304 39.9411 7.9517 40.0803 7.9517C40.1825 7.9517 40.272 7.9446 40.3487 7.9304C40.4254 7.91619 40.4851 7.90483 40.5277 7.89631L40.7578 8.94886C40.6839 8.97727 40.5788 9.00568 40.4425 9.03409C40.3061 9.06534 40.1357 9.08239 39.9311 9.08523C39.5959 9.09091 39.2834 9.03125 38.9936 8.90625C38.7038 8.78125 38.4695 8.58807 38.2905 8.3267C38.1115 8.06534 38.022 7.73722 38.022 7.34233V0.886364ZM46.1942 6.28551V2.45455H47.4727V9H46.2198V7.86648H46.1516C46.0011 8.21591 45.7596 8.5071 45.4272 8.74006C45.0977 8.97017 44.6871 9.08523 44.1957 9.08523C43.7752 9.08523 43.4031 8.9929 43.0792 8.80824C42.7582 8.62074 42.5053 8.34375 42.3207 7.97727C42.1388 7.6108 42.0479 7.15767 42.0479 6.6179V2.45455H43.3221V6.46449C43.3221 6.91051 43.4457 7.26562 43.6928 7.52983C43.94 7.79403 44.261 7.92614 44.6559 7.92614C44.8945 7.92614 45.1317 7.86648 45.3675 7.74716C45.6062 7.62784 45.8036 7.44744 45.9599 7.20597C46.119 6.96449 46.1971 6.65767 46.1942 6.28551ZM49.1847 9V2.45455H50.4162V3.49432H50.4844C50.6037 3.14205 50.8139 2.86506 51.1151 2.66335C51.419 2.45881 51.7628 2.35653 52.1463 2.35653C52.2259 2.35653 52.3196 2.35937 52.4276 2.36506C52.5384 2.37074 52.625 2.37784 52.6875 2.38636V3.60511C52.6364 3.59091 52.5455 3.57528 52.4148 3.55824C52.2841 3.53835 52.1534 3.52841 52.0227 3.52841C51.7216 3.52841 51.4531 3.59233 51.2173 3.72017C50.9844 3.84517 50.7997 4.01989 50.6634 4.24432C50.527 4.46591 50.4588 4.71875 50.4588 5.00284V9H49.1847ZM56.3768 9.1321C55.7319 9.1321 55.1765 8.99432 54.7106 8.71875C54.2475 8.44034 53.8896 8.04972 53.6367 7.54688C53.3867 7.04119 53.2617 6.44886 53.2617 5.76989C53.2617 5.09943 53.3867 4.50852 53.6367 3.99716C53.8896 3.4858 54.2418 3.08665 54.6935 2.79972C55.1481 2.51278 55.6793 2.36932 56.2873 2.36932C56.6566 2.36932 57.0146 2.4304 57.3612 2.55256C57.7077 2.67472 58.0188 2.86648 58.2944 3.12784C58.57 3.3892 58.7873 3.72869 58.9464 4.14631C59.1055 4.56108 59.185 5.06534 59.185 5.65909V6.1108H53.9819V5.15625H57.9364C57.9364 4.82102 57.8683 4.52415 57.7319 4.26562C57.5955 4.00426 57.4038 3.7983 57.1566 3.64773C56.9123 3.49716 56.6254 3.42188 56.2958 3.42188C55.9379 3.42188 55.6254 3.50994 55.3583 3.68608C55.0941 3.85937 54.8896 4.08665 54.7447 4.3679C54.6026 4.64631 54.5316 4.94886 54.5316 5.27557V6.02131C54.5316 6.45881 54.6083 6.83097 54.7617 7.13778C54.918 7.4446 55.1353 7.67898 55.4137 7.84091C55.6921 8 56.0174 8.07955 56.3896 8.07955C56.631 8.07955 56.8512 8.04545 57.0501 7.97727C57.2489 7.90625 57.4208 7.80114 57.5657 7.66193C57.7106 7.52273 57.8214 7.35085 57.8981 7.14631L59.104 7.36364C59.0075 7.71875 58.8342 8.02983 58.5842 8.29688C58.337 8.56108 58.0259 8.76705 57.6509 8.91477C57.2788 9.05966 56.854 9.1321 56.3768 9.1321ZM65.5036 4.05256L64.3487 4.2571C64.3004 4.10937 64.2237 3.96875 64.1186 3.83523C64.0163 3.7017 63.8771 3.59233 63.701 3.5071C63.5249 3.42187 63.3047 3.37926 63.0405 3.37926C62.6797 3.37926 62.3786 3.46023 62.1371 3.62216C61.8956 3.78125 61.7749 3.98722 61.7749 4.24006C61.7749 4.45881 61.8558 4.63494 62.0178 4.76847C62.1797 4.90199 62.4411 5.01136 62.8018 5.09659L63.8416 5.33523C64.4439 5.47443 64.8928 5.68892 65.1882 5.97869C65.4837 6.26847 65.6314 6.64489 65.6314 7.10795C65.6314 7.5 65.5178 7.84943 65.2905 8.15625C65.0661 8.46023 64.7521 8.69886 64.3487 8.87216C63.9482 9.04545 63.4837 9.1321 62.9553 9.1321C62.2223 9.1321 61.6243 8.97585 61.1612 8.66335C60.6982 8.34801 60.4141 7.90057 60.3089 7.32102L61.5405 7.13352C61.6172 7.45455 61.7749 7.69744 62.0135 7.86222C62.2521 8.02415 62.5632 8.10511 62.9467 8.10511C63.3643 8.10511 63.6982 8.01847 63.9482 7.84517C64.1982 7.66903 64.3232 7.45455 64.3232 7.2017C64.3232 6.99716 64.2464 6.82528 64.093 6.68608C63.9425 6.54687 63.7109 6.44176 63.3984 6.37074L62.2905 6.12784C61.6797 5.98864 61.228 5.76705 60.9354 5.46307C60.6456 5.15909 60.5007 4.77415 60.5007 4.30824C60.5007 3.92187 60.6087 3.58381 60.8246 3.29403C61.0405 3.00426 61.3388 2.77841 61.7195 2.61648C62.1001 2.4517 62.5362 2.36932 63.0277 2.36932C63.7351 2.36932 64.2919 2.52273 64.6982 2.82955C65.1044 3.13352 65.3729 3.54119 65.5036 4.05256Z"
          fill="#000000"/>
</svg>
